<svg xmlns="http://www.w3.org/2000/svg" width="512" height="512" viewBox="0 0 512 512">
  <rect width="512" height="512" rx="112" fill="#5BBAA7"/>
  <path fill="#2D3436" d="M203.8 375.24Q190.48 375.24 183.46 368.04Q176.44 360.84 176.44 347.52V142.68Q176.44 129 183.46 121.98Q190.48 114.96 203.8 114.96Q216.76 114.96 223.78 121.98Q230.8 129 230.8 142.68V268.32H231.52L283.72 210.36Q291.64 201.36 298.3 196.86Q304.96 192.36 316.12 192.36Q327.28 192.36 333.22 198.12Q339.16 203.88 339.34 211.98Q339.52 220.08 332.32 228.36L277.24 289.92V269.4L338.44 339.96Q345.28 348.24 344.38 356.52Q343.48 364.8 337 370.02Q330.52 375.24 320.44 375.24Q308.2 375.24 300.82 370.56Q293.44 365.88 285.88 356.16L231.52 295.68H230.8V347.52Q230.8 375.24 203.8 375.24Z"/>
</svg>
